<svg width="512" height="512" viewBox="0 0 512 512" xmlns="http://www.w3.org/2000/svg"><g fill="#1C4D88"><path d="m490.74 392.267v-63.896c0-11.846-7.901-21.876-18.709-25.111v-218.648c0-25.253-20.544-45.798-45.796-45.798s-45.796 20.545-45.796 45.798v289.993c0 21.437-17.452 38.876-38.903 38.876h-9.338v-55.517c0-27.269-22.185-49.453-49.453-49.453h-63.452v-38.151h106.538c12.701 0 23.034-10.333 23.034-23.034v-209.061c0-12.686-10.333-23.006-23.034-23.006h-302.826c-12.685 0-23.005 10.32-23.005 23.006v209.062c0 12.701 10.32 23.034 23.005 23.034h106.539v38.151h-63.452c-27.268 0-49.453 22.185-49.453 49.453v126.061c0 7.012 5.704 12.716 12.715 12.716h290.156c6.996 0 12.688-5.704 12.688-12.716v-55.544h9.338c29.723 0 53.903-24.169 53.903-53.876v-289.994c0-16.982 13.815-30.798 30.796-30.798s30.796 13.815 30.796 30.798v218.648c-10.807 3.234-18.708 13.265-18.708 25.111v63.896c-12.621 6.59-21.26 19.792-21.26 34.979v11.679c0 6.512 5.297 11.81 11.809 11.81h71.32c6.511 0 11.809-5.298 11.809-11.81v-11.679c-.001-15.188-8.64-28.389-21.261-34.979zm-467.735-136.907c-4.414 0-8.005-3.604-8.005-8.034v-209.061c0-4.414 3.591-8.006 8.005-8.006h302.826c4.43 0 8.034 3.592 8.034 8.006v209.062c0 4.355-3.679 8.034-8.034 8.034h-302.826zm181.288 15v38.151h-59.75v-38.151zm-121.091 53.152h182.462v71.248c0 6.166-5.016 11.182-11.181 11.182h-160.129c-6.149 0-11.152-5.016-11.152-11.182zm233.996 120.33h-123.263c-4.142 0-7.5 3.357-7.5 7.5s3.358 7.5 7.5 7.5h123.263v22.899h-285.558v-22.899h129.102c4.142 0 7.5-3.357 7.5-7.5s-3.358-7.5-7.5-7.5h-129.102v-85.877c0-18.997 15.456-34.453 34.453-34.453h2.109v71.248c0 14.437 11.732 26.182 26.152 26.182h160.129c14.436 0 26.181-11.745 26.181-26.182v-71.248h2.081c18.997 0 34.453 15.456 34.453 34.453zm136.125-115.471c0-6.182 5.028-11.21 11.208-11.21 6.181 0 11.209 5.028 11.209 11.21v59.557c-.015-.001-.031.009-.046.01-1.047-.083-2.102-.138-3.17-.138h-15.987c-1.064 0-2.115.055-3.158.138-.018-.001-.04-.01-.057-.009v-59.558zm43.677 107.363h-64.938v-8.488c0-13.48 10.98-24.447 24.475-24.447h15.987c13.496 0 24.475 10.967 24.475 24.447v8.488z"/><path d="m232.203 355.997c4.142 0 7.5-3.357 7.5-7.5s-3.358-7.5-7.5-7.5h-.028c-4.142 0-7.486 3.357-7.486 7.5s3.372 7.5 7.514 7.5z"/><path d="m193.68 355.997c4.142 0 7.5-3.357 7.5-7.5s-3.358-7.5-7.5-7.5h-.057c-4.142 0-7.472 3.357-7.472 7.5s3.387 7.5 7.529 7.5z"/><path d="m155.214 355.997c4.142 0 7.5-3.357 7.5-7.5s-3.358-7.5-7.5-7.5h-.057c-4.142 0-7.472 3.357-7.472 7.5s3.387 7.5 7.529 7.5z"/><path d="m116.691 355.997c4.142 0 7.5-3.357 7.5-7.5s-3.358-7.5-7.5-7.5h-.057c-4.142 0-7.472 3.357-7.472 7.5s3.387 7.5 7.529 7.5z"/><path d="m232.203 388.455c4.142 0 7.5-3.357 7.5-7.5s-3.358-7.5-7.5-7.5h-.028c-4.142 0-7.486 3.357-7.486 7.5s3.372 7.5 7.514 7.5z"/><path d="m193.68 388.455c4.142 0 7.5-3.357 7.5-7.5s-3.358-7.5-7.5-7.5h-.057c-4.142 0-7.472 3.357-7.472 7.5s3.387 7.5 7.529 7.5z"/><path d="m155.214 388.455c4.142 0 7.5-3.357 7.5-7.5s-3.358-7.5-7.5-7.5h-.057c-4.142 0-7.472 3.357-7.472 7.5s3.387 7.5 7.529 7.5z"/><path d="m116.691 388.455c4.142 0 7.5-3.357 7.5-7.5s-3.358-7.5-7.5-7.5h-.057c-4.142 0-7.472 3.357-7.472 7.5s3.387 7.5 7.529 7.5z"/><path d="m305.28 50.211h-261.695c-7.214 0-13.084 5.869-13.084 13.084v159c0 7.215 5.87 13.085 13.073 13.085h114.936c.004 0 .046.17.049.17 4.137 0 7.456-3.521 7.462-7.66.006-4.142-3.347-7.505-7.489-7.511l-113.031.003v-155.171h257.835v155.169h-109.968c-4.142 0-7.5 3.357-7.5 7.5s3.358 7.5 7.5 7.5h111.912c7.199 0 13.056-5.87 13.056-13.085v-159c0-7.215-5.857-13.084-13.056-13.084z"/><path d="m282.32 78.671h-27.553c-4.142 0-7.5 3.357-7.5 7.5s3.358 7.5 7.5 7.5h27.553c4.142 0 7.5-3.357 7.5-7.5s-3.358-7.5-7.5-7.5z"/><path d="m280.987 105.743h-12.246c-4.142 0-7.5 3.357-7.5 7.5s3.358 7.5 7.5 7.5h12.246c4.142 0 7.5-3.357 7.5-7.5s-3.358-7.5-7.5-7.5z"/><path d="m239.293 109.669c-3.496-5.695-6.644-9.493-15.365-6.444-.682.237-1.502.525-2.509.834-32.07 9.818-61.93 9.817-93.977-.001-1.021-.312-1.848-.602-2.534-.84-8.703-3.032-11.832.737-15.302 6.396l-29.87 48.555c-1.021 1.667-3.411 5.57-2.174 10.167 1.13 4.199 4.555 6.512 7.412 8.057.005.003.01.006.016.009 34.423 18.513 62.004 26.769 89.428 26.769s55.005-8.256 89.426-26.768c2.873-1.544 6.315-3.855 7.453-8.061 1.244-4.6-1.148-8.505-2.177-10.187l-29.592-48.102zm-145.57 54.392 28.291-45.986c.328.105.674.215 1.041.327 34.558 10.588 68.169 10.589 102.759-.001.366-.112.711-.222 1.038-.328l28.284 45.978c-60.129 31.95-101.289 31.955-161.413.01z"/></g></svg>